<svg width="17" height="18" viewBox="0 0 17 18" fill="none" xmlns="http://www.w3.org/2000/svg">
<path d="M2.63 0H4.54C5.23487 0 5.90127 0.276035 6.39262 0.76738C6.88397 1.25873 7.16 1.92513 7.16 2.62V4.5C7.16 4.84406 7.09223 5.18476 6.96056 5.50263C6.8289 5.8205 6.63591 6.10933 6.39262 6.35262C6.14933 6.59591 5.8605 6.7889 5.54263 6.92056C5.22476 7.05223 4.88406 7.12 4.54 7.12H2.63C1.93421 7.12001 1.26677 6.84429 0.773836 6.35323C0.280901 5.86217 0.00264559 5.19579 0 4.5V2.63C0 1.93248 0.277089 1.26353 0.770309 0.770309C1.26353 0.277088 1.93248 0 2.63 0Z" fill="#2C3D7A"/>
<path d="M2.63 9.82998H4.54C4.88915 9.82858 5.23506 9.89699 5.5574 10.0312C5.87974 10.1654 6.17201 10.3626 6.41703 10.6114C6.66205 10.8601 6.85488 11.1553 6.98418 11.4797C7.11349 11.804 7.17667 12.1509 7.17 12.5V14.41C7.1595 15.1005 6.87778 15.7593 6.38569 16.2439C5.8936 16.7285 5.23064 17.0001 4.54 17H2.63C1.93248 17 1.26353 16.7229 0.770309 16.2297C0.277089 15.7364 0 15.0675 0 14.37V12.5C0 11.8051 0.276035 11.1387 0.76738 10.6474C1.25873 10.156 1.92513 9.87998 2.62 9.87998L2.63 9.82998Z" fill="#2C3D7A"/>
<path d="M12.3 0H14.21C14.9075 0 15.5765 0.277088 16.0697 0.770309C16.5629 1.26353 16.84 1.93248 16.84 2.63V4.5C16.84 5.19487 16.5639 5.86127 16.0726 6.35262C15.5813 6.84397 14.9148 7.12 14.22 7.12H12.3C11.6042 7.12001 10.9368 6.84429 10.4438 6.35323C9.95088 5.86217 9.67263 5.19579 9.66998 4.5V2.63C9.66998 1.93248 9.94707 1.26353 10.4403 0.770309C10.9335 0.277088 11.6025 0 12.3 0Z" fill="#2C3D7A"/>
<path d="M12.3 9.82996H14.21C14.5588 9.82992 14.904 9.89925 15.2258 10.0339C15.5475 10.1686 15.8392 10.3659 16.084 10.6144C16.3287 10.8628 16.5216 11.1575 16.6514 11.4812C16.7812 11.8049 16.8453 12.1512 16.84 12.5V14.41C16.84 15.1075 16.5629 15.7764 16.0697 16.2696C15.5765 16.7629 14.9075 17.04 14.21 17.04H12.3C11.6059 17.0373 10.941 16.7604 10.4503 16.2697C9.9595 15.7789 9.68262 15.114 9.67998 14.42V12.5C9.67333 12.1517 9.73619 11.8056 9.86488 11.482C9.99357 11.1583 10.1855 10.8635 10.4295 10.6149C10.6734 10.3663 10.9645 10.1688 11.2857 10.0341C11.6068 9.89928 11.9517 9.82989 12.3 9.82996Z" fill="#2C3D7A"/>
</svg>
