<svg width="15" height="13" viewBox="0 0 15 13" fill="none" xmlns="http://www.w3.org/2000/svg">
<path d="M3.52655 7.11808C3.76489 6.89938 4.07659 6.77804 4.40006 6.77804C4.72353 6.77804 5.03523 6.89938 5.27357 7.11808L7.04496 8.74321L10.6203 5.36294C10.8613 5.14311 11.1757 5.02124 11.5019 5.02124C11.8281 5.02124 12.1425 5.14311 12.3835 5.36294L15 7.71125V2.13705C15.0011 1.85679 14.9468 1.57908 14.8403 1.31985C14.7338 1.06062 14.5771 0.824967 14.3793 0.626417C14.1815 0.427867 13.9465 0.270325 13.6876 0.162828C13.4288 0.0553323 13.1513 -2.04135e-06 12.8711 0H2.12894C1.84868 -2.04135e-06 1.57118 0.0553323 1.31235 0.162828C1.05353 0.270325 0.818478 0.427867 0.620682 0.626417C0.422887 0.824967 0.266241 1.06062 0.159732 1.31985C0.0532227 1.57908 -0.00105418 1.85679 1.55084e-05 2.13705V9.89706C1.55084e-05 10.0027 1.55084e-05 10.1002 1.55084e-05 10.2058L3.52655 7.11808ZM6.49242 1.72264C6.8283 1.72264 7.15665 1.82224 7.43592 2.00885C7.7152 2.19546 7.93287 2.46069 8.06141 2.77101C8.18995 3.08132 8.22358 3.42279 8.15805 3.75222C8.09252 4.08165 7.93078 4.38425 7.69327 4.62176C7.45577 4.85926 7.15316 5.02101 6.82373 5.08653C6.4943 5.15206 6.15284 5.11843 5.84252 4.98989C5.5322 4.86136 5.26697 4.64369 5.08036 4.36441C4.89376 4.08513 4.79416 3.75679 4.79416 3.4209C4.79629 2.97115 4.9759 2.54043 5.29393 2.22241C5.61195 1.90439 6.04267 1.72478 6.49242 1.72264Z" fill="url(#paint0_linear_1_59)"/>
<path d="M6.49243 4.14409C6.63546 4.14409 6.77528 4.10168 6.8942 4.02221C7.01313 3.94275 7.10582 3.8298 7.16056 3.69766C7.2153 3.56551 7.22962 3.42011 7.20171 3.27982C7.17381 3.13954 7.10493 3.01068 7.00379 2.90954C6.90265 2.8084 6.7738 2.73953 6.63351 2.71162C6.49323 2.68372 6.34782 2.69804 6.21567 2.75277C6.08353 2.80751 5.97058 2.9002 5.89112 3.01913C5.81166 3.13806 5.76924 3.27788 5.76924 3.42091C5.76924 3.61271 5.84543 3.79665 5.98106 3.93228C6.11668 4.0679 6.30063 4.14409 6.49243 4.14409Z" fill="url(#paint1_linear_1_59)"/>
<path d="M14.5775 8.66193L11.7335 6.11048C11.6736 6.05566 11.5953 6.02526 11.5141 6.02526C11.4329 6.02526 11.3546 6.05566 11.2947 6.11048L7.37812 9.80765C7.28873 9.89404 7.16928 9.94232 7.04497 9.94232C6.92066 9.94232 6.80121 9.89404 6.71182 9.80765L4.60727 7.84937C4.54869 7.79511 4.47179 7.76497 4.39194 7.76497C4.3121 7.76497 4.23519 7.79511 4.17661 7.84937L0.674453 10.9371C0.583971 11.015 0.468786 11.0582 0.349426 11.059C0.543164 11.3564 0.808196 11.6007 1.12041 11.7696C1.43262 11.9385 1.78211 12.0266 2.13707 12.026H12.8711C13.1506 12.026 13.4275 11.9709 13.6858 11.8639C13.9441 11.7569 14.1788 11.6001 14.3764 11.4024C14.5741 11.2047 14.7309 10.97 14.8379 10.7117C14.9449 10.4534 15 10.1766 15 9.89703V8.76757C14.9262 8.78457 14.8495 8.78386 14.776 8.7655C14.7026 8.74714 14.6345 8.71165 14.5775 8.66193Z" fill="url(#paint2_linear_1_59)"/>
<defs>
<linearGradient id="paint0_linear_1_59" x1="7.5" y1="-3.3513e-07" x2="15.4245" y2="44.4473" gradientUnits="userSpaceOnUse">
<stop stop-color="white"/>
<stop offset="1" stop-color="#A8A7AD"/>
</linearGradient>
<linearGradient id="paint1_linear_1_59" x1="6.49243" y1="2.69773" x2="8.08608" y2="8.77942" gradientUnits="userSpaceOnUse">
<stop stop-color="white"/>
<stop offset="1" stop-color="#A8A7AD"/>
</linearGradient>
<linearGradient id="paint2_linear_1_59" x1="7.67471" y1="6.02526" x2="10.5358" y2="32.6825" gradientUnits="userSpaceOnUse">
<stop stop-color="white"/>
<stop offset="1" stop-color="#A8A7AD"/>
</linearGradient>
</defs>
</svg>
