<svg width="11" height="12" viewBox="0 0 11 12" fill="none" xmlns="http://www.w3.org/2000/svg">
<path d="M5.35006 5.21417C5.86539 5.21417 6.36916 5.06144 6.79773 4.77529C7.22631 4.48914 7.56047 4.08239 7.758 3.60642C7.95553 3.13046 8.00758 2.60663 7.90757 2.1011C7.80755 1.59558 7.55997 1.13103 7.19608 0.766136C6.83219 0.401244 6.36832 0.152379 5.86307 0.0509742C5.35782 -0.0504303 4.83385 0.000175322 4.35734 0.196398C3.88084 0.392622 3.47317 0.72566 3.18584 1.15345C2.89851 1.58123 2.7444 2.08458 2.74298 2.5999C2.74298 3.29201 3.01742 3.95587 3.50614 4.44593C3.99486 4.936 4.65796 5.21227 5.35006 5.21417Z" fill="url(#paint0_linear_1_37)"/>
<path d="M10.6289 10.1267C10.2086 9.06991 9.48076 8.16361 8.53963 7.52508C7.5985 6.88656 6.48738 6.5452 5.35008 6.5452C4.21278 6.5452 3.10167 6.88656 2.16054 7.52508C1.2194 8.16361 0.491584 9.06991 0.0712751 10.1267C0.00994192 10.2802 -0.012322 10.4465 0.00648109 10.6107C0.0252841 10.7749 0.0845658 10.9319 0.179006 11.0675C0.2729 11.2078 0.400134 11.3225 0.549299 11.4015C0.698463 11.4805 0.864895 11.5212 1.03367 11.52H9.65213C9.82067 11.5199 9.98665 11.4787 10.1356 11.3998C10.2846 11.321 10.412 11.2069 10.5068 11.0675C10.6019 10.9323 10.6626 10.7761 10.6839 10.6122C10.7052 10.4483 10.6863 10.2817 10.6289 10.1267Z" fill="url(#paint1_linear_1_37)"/>
<defs>
<linearGradient id="paint0_linear_1_37" x1="5.35006" y1="-1.71218e-07" x2="11.0952" y2="21.9246" gradientUnits="userSpaceOnUse">
<stop stop-color="white"/>
<stop offset="1" stop-color="#A8A7AD"/>
</linearGradient>
<linearGradient id="paint1_linear_1_37" x1="5.34619" y1="6.5452" x2="8.03172" y2="28.5723" gradientUnits="userSpaceOnUse">
<stop stop-color="white"/>
<stop offset="1" stop-color="#A8A7AD"/>
</linearGradient>
</defs>
</svg>
