<svg width="20" height="22" viewBox="0 0 20 22" fill="none" xmlns="http://www.w3.org/2000/svg">
<path d="M19.4213 13.0474C18.9663 12.4641 18.715 11.7439 18.7071 11C18.706 10.245 18.9529 9.51112 19.4088 8.91445C19.723 8.51954 19.9204 8.04226 19.9781 7.53805C20.0357 7.03383 19.9513 6.52336 19.7345 6.0659C19.6343 5.86243 19.5341 5.67168 19.4213 5.48092C19.3302 5.31006 19.2298 5.14449 19.1206 4.98497C18.8367 4.54887 18.4356 4.20449 17.9648 3.99264C17.4939 3.78078 16.9732 3.71031 16.4641 3.7896C15.7294 3.89955 14.9795 3.75636 14.3344 3.3829C13.6893 3.00945 13.1862 2.42729 12.9055 1.72948C12.7147 1.24174 12.3903 0.81965 11.9706 0.513155C11.5509 0.206661 11.0535 0.0285856 10.5372 0H9.42201C8.90714 0.0275144 8.41072 0.203705 7.99117 0.507841C7.57162 0.811976 7.2464 1.2314 7.05376 1.71676C6.77421 2.41422 6.27414 2.99759 5.63222 3.37513C4.99029 3.75266 4.24292 3.90293 3.50765 3.80231C2.9911 3.73069 2.46517 3.81272 1.99365 4.03844C1.52213 4.26417 1.12527 4.62389 0.851206 5.07399C0.629323 5.4172 0.428457 5.77395 0.249746 6.1422C0.0379036 6.60233 -0.0415576 7.11384 0.0205149 7.61781C0.0825874 8.12177 0.283668 8.59769 0.600597 8.99075C1.04786 9.56373 1.29864 10.2692 1.31483 11C1.31592 11.755 1.06901 12.4889 0.613128 13.0856C0.298895 13.4805 0.101485 13.9577 0.0438173 14.462C-0.0138501 14.9662 0.070591 15.4766 0.287337 15.9341C0.38758 16.1376 0.487823 16.3283 0.600597 16.5191C0.691681 16.6899 0.79208 16.8555 0.901328 17.015C1.1863 17.45 1.58757 17.7935 2.05808 18.0052C2.52858 18.2169 3.04882 18.2881 3.55778 18.2104C4.29251 18.1004 5.04236 18.2436 5.68747 18.6171C6.33257 18.9906 6.8357 19.5727 7.11641 20.2705C7.30715 20.7583 7.63156 21.1803 8.05126 21.4868C8.47095 21.7933 8.96837 21.9714 9.48466 22H10.5999C11.119 21.9693 11.6185 21.7875 12.0385 21.4762C12.4585 21.165 12.7812 20.7376 12.9681 20.2451C13.2477 19.5476 13.7477 18.9643 14.3897 18.5867C15.0316 18.2092 15.779 18.0589 16.5142 18.1595C17.0309 18.2328 17.5574 18.1515 18.0293 17.9256C18.5011 17.6998 18.8978 17.3391 19.1707 16.8879C19.3926 16.5446 19.5934 16.1879 19.7721 15.8197C19.9689 15.3692 20.0402 14.8725 19.9784 14.3838C19.9165 13.895 19.7238 13.4328 19.4213 13.0474ZM11.4645 13.5434C10.971 13.8303 10.4049 13.9627 9.83752 13.9238C9.2701 13.8849 8.72669 13.6765 8.27573 13.3249C7.82476 12.9732 7.48639 12.494 7.30322 11.9476C7.12005 11.4012 7.10027 10.812 7.24637 10.2542C7.39248 9.69638 7.69793 9.19492 8.12427 8.81294C8.55062 8.43095 9.07879 8.18552 9.64229 8.10754C10.2058 8.02957 10.7794 8.12254 11.291 8.37474C11.8025 8.62695 12.2291 9.02711 12.517 9.52486C12.7116 9.85787 12.8388 10.2269 12.8912 10.6104C12.9436 10.9939 12.9201 11.3842 12.8221 11.7584C12.724 12.1325 12.5535 12.4831 12.3204 12.7896C12.0873 13.0961 11.7963 13.3524 11.4645 13.5434Z" fill="#2C3D7A"/>
</svg>
